<?xml version="1.0" standalone="no"?>
<!DOCTYPE svg PUBLIC "-//W3C//DTD SVG 20010904//EN"
 "http://www.w3.org/TR/2001/REC-SVG-20010904/DTD/svg10.dtd">
<svg version="1.0" xmlns="http://www.w3.org/2000/svg"
 width="686.000000pt" height="1280.000000pt" viewBox="0 0 686.000000 1280.000000"
 preserveAspectRatio="xMidYMid meet">
<metadata>
Created by potrace 1.15, written by Peter Selinger 2001-2017
</metadata>
<g transform="translate(0.000000,1280.000000) scale(0.100000,-0.100000)"
fill="#000000" stroke="none">
<path d="M3442 7870 c3 -4926 3 -4930 -17 -4924 -11 4 -36 14 -55 24 -57 28
-218 86 -315 113 -205 57 -244 62 -495 61 -468 -1 -731 -64 -1164 -281 -180
-89 -256 -133 -396 -226 -518 -344 -860 -777 -965 -1223 -95 -398 14 -773 310
-1069 132 -132 270 -217 444 -274 269 -88 619 -92 979 -11 442 99 910 333
1272 638 122 103 311 296 382 392 180 243 354 612 419 890 20 84 20 141 29
3705 4 1991 8 3621 9 3623 8 18 202 -27 351 -81 466 -169 981 -465 1312 -754
501 -438 896 -1345 979 -2245 15 -165 7 -560 -15 -693 -67 -413 -203 -839
-551 -1720 -108 -273 -235 -603 -235 -611 0 -2 8 -4 18 -4 51 0 160 153 286
399 390 767 747 1894 822 2595 26 246 8 646 -41 926 -109 609 -374 1163 -879
1835 -195 261 -348 442 -771 920 -337 381 -460 525 -609 719 -361 469 -521
815 -621 1345 -47 249 -55 340 -55 606 l0 255 -216 0 -216 0 4 -4930z"/>
</g>
</svg>
